HIERARCHY
ROOT Hips
{
     OFFSET 15.33180 93.83130 7.06938
     CHANNELS 6 Xposition Yposition Zposition Zrotation Xrotation Yrotation
     JOINT Spine
     {
          OFFSET 0.00000 11.89050 0.00000
          CHANNELS 3 Zrotation Xrotation Yrotation
          JOINT Spine1
          {
               OFFSET 0.00000 25.65740 0.12766
               CHANNELS 3 Zrotation Xrotation Yrotation
               JOINT HEad
               {
                    OFFSET 0.00000 8.73416 0.01134
                    CHANNELS 3 Zrotation Xrotation Yrotation
                    End Site
                    {
                         OFFSET -0.29000 12.77420 2.51395
                    }
               }
               JOINT LeftShoulder1
               {
                    OFFSET 8.99000 -0.36225 -0.22000
                    CHANNELS 3 Zrotation Xrotation Yrotation
                    JOINT LeftArm
                    {
                         OFFSET 10.28270 -0.00338 0.32212
                         CHANNELS 3 Zrotation Xrotation Yrotation
                         JOINT LeftForeArm
                         {
                              OFFSET 32.76690 0.09914 -1.42434
                              CHANNELS 3 Zrotation Xrotation Yrotation
                              JOINT LeftHand
                              {
                                   OFFSET 27.56430 0.08536 1.02216
                                   CHANNELS 3 Zrotation Xrotation Yrotation
                                   End Site
                                   {
                                        OFFSET 16.74430 -0.60000 1.50291
                                   }
                              }
                         }
                    }
               }
               JOINT RightShoulder
               {
                    OFFSET -8.99000 -0.36225 -0.22000
                    CHANNELS 3 Zrotation Xrotation Yrotation
                    JOINT RightArm
                    {
                         OFFSET -10.28270 -0.00338 0.32212
                         CHANNELS 3 Zrotation Xrotation Yrotation
                         JOINT RightForeArm
                         {
                              OFFSET -32.89710 0.09914 -1.42434
                              CHANNELS 3 Zrotation Xrotation Yrotation
                              JOINT RightHand
                              {
                                   OFFSET -27.49210 0.08536 1.02216
                                   CHANNELS 3 Zrotation Xrotation Yrotation
                                   End Site
                                   {
                                        OFFSET -16.63120 -0.60000 1.50291
                                   }
                              }
                         }
                    }
               }
          }
     }
     JOINT LeftUpLeg
     {
          OFFSET 8.94580 -8.66707 0.10165
          CHANNELS 3 Zrotation Xrotation Yrotation
          JOINT LeftLeg
          {
               OFFSET 0.00000 -44.42270 1.37270
               CHANNELS 3 Zrotation Xrotation Yrotation
               JOINT LeftFoot
               {
                    OFFSET -0.25355 -42.09240 -1.46059
                    CHANNELS 3 Zrotation Xrotation Yrotation
                    JOINT LeftToes
                    {
                         OFFSET -0.04000 -4.41509 8.49910
                         CHANNELS 3 Zrotation Xrotation Yrotation
                         End Site
                         {
                              OFFSET 0.08000 -0.04745 9.77979
                         }
                    }
               }
          }
     }
     JOINT RightUpLeg
     {
          OFFSET -8.94580 -8.66707 0.10165
          CHANNELS 3 Zrotation Xrotation Yrotation
          JOINT RightLeg
          {
               OFFSET -0.00000 -44.42270 1.37270
               CHANNELS 3 Zrotation Xrotation Yrotation
               JOINT RightFoot
               {
                    OFFSET 0.25355 -42.09240 -1.46059
                    CHANNELS 3 Zrotation Xrotation Yrotation
                    JOINT RightToes
                    {
                         OFFSET 0.04000 -4.41509 8.49910
                         CHANNELS 3 Zrotation Xrotation Yrotation
                         End Site
                         {
                              OFFSET -0.08000 -0.13745 9.77979
                         }
                    }
               }
          }
     }
}
MOTION
Frames: 14
Frame Time: 0.01667
52.55700 90.88170 -12.03220 12.03100 17.12020 143.96500 -8.64453 15.00630 2.62619 -5.76140 29.04040 4.84256 -9.19373 7.82807 8.20128 -0.00000 0.00000 -0.00000 -137.92700 -62.45420 -100.44200 -94.60380 65.46910 -42.19270 20.79040 7.48285 -9.42100 12.39220 1.30591 5.83097 79.12680 2.35768 77.83810 -3.00231 26.84880 94.17130 5.14886 10.69200 11.24860 26.86730 -13.44660 -2.88642 -38.27690 29.48360 77.80990 -2.98574 14.84980 0.47913 8.88717 -14.34050 -76.47630 -38.64070 27.43630 28.39050 39.07310 2.27484 -27.81960 -24.04670 3.80751 2.34600 2.35454 -47.89090 -5.70168 
52.20460 91.56990 -12.83270 12.53950 16.39610 140.93800 -8.74673 14.71860 2.53460 -5.95259 28.56360 4.44799 -10.39110 8.00407 10.42810 -0.00000 0.00000 -0.00000 -136.30200 -64.32620 -100.90500 -90.38880 66.81390 -48.91730 20.59480 7.54624 -9.19791 11.95510 1.23953 5.58618 78.29980 3.38365 77.30370 -3.24619 27.03700 95.09570 5.37002 10.70010 10.84300 28.28190 -12.54250 -4.42760 -38.10190 28.16840 77.75760 -3.58358 14.56560 0.58895 10.77100 -10.57700 -76.81470 -39.13040 25.54930 29.08020 38.45220 2.41567 -25.72710 -23.14260 6.24621 2.76287 2.30393 -47.75320 -5.84462 
51.79190 92.27760 -13.93460 13.05760 15.34420 137.60100 -8.26866 14.26280 2.37858 -6.01501 27.84720 4.09379 -11.54970 7.79992 12.61240 -0.00000 0.00000 -0.00000 -136.67599 -65.81340 -103.84100 -85.72360 67.27360 -54.69080 20.36600 7.52481 -9.47999 11.40460 1.15876 5.27818 77.60460 4.48291 76.72780 -3.66156 27.19770 96.31500 5.49288 10.69630 10.47490 29.71180 -10.84690 -7.67762 -37.73560 24.99530 77.78450 -4.15012 14.11240 0.68480 11.57920 -8.51913 -75.55450 -39.34560 22.95520 29.48540 37.86760 3.20920 -23.78150 -22.26880 9.35400 3.27937 2.38546 -48.00790 -5.61876 
51.34320 92.94580 -15.25020 13.52340 14.05950 134.09399 -7.24199 13.73560 2.16229 -5.99342 27.03540 3.85540 -12.50540 7.03787 14.54610 -0.00000 0.00000 -0.00000 -142.92000 -66.54540 -112.82400 -84.01820 66.74840 -55.25650 20.24100 7.39223 -10.33450 10.76600 1.06064 4.86120 77.13000 5.61351 76.25220 -4.15125 27.30220 97.65280 5.43399 10.67130 10.15160 31.02930 -8.41411 -12.05280 -36.95970 20.38130 77.64610 -4.63038 13.92630 0.76937 11.58050 -7.45521 -72.42610 -39.05190 19.39290 29.15700 37.49520 5.56790 -22.63620 -21.59160 12.48250 3.78745 2.69083 -48.35000 -4.72368 
50.87400 93.53150 -16.68390 13.89210 12.69530 130.58200 -5.87240 13.23930 1.90574 -5.93228 26.27010 3.73509 -13.19230 5.72806 16.17750 -0.00000 0.00000 -0.00000 -154.54201 -65.22090 -127.33200 -85.30530 65.24300 -49.75610 20.43020 7.16579 -11.48370 10.06440 0.95362 4.36682 76.88920 6.72697 76.03980 -4.45745 27.36020 98.78790 5.13809 10.61990 9.86950 32.16790 -5.34598 -16.72060 -35.75460 14.88940 77.11130 -4.85758 14.16640 0.82070 11.28530 -6.51297 -68.13130 -38.42440 15.27500 28.05940 37.40500 9.01216 -22.49360 -21.37470 15.50980 4.33573 3.16827 -48.11600 -3.22021 
50.37790 93.95460 -18.19550 14.18050 11.39680 127.29100 -4.42952 12.82480 1.59214 -5.80863 25.62570 3.63712 -13.65850 4.07461 17.63370 -0.00000 0.00000 -0.00000 -164.25400 -61.23600 -140.42999 -85.66200 62.62870 -41.35780 20.92020 6.91553 -12.48500 9.37528 0.85665 3.89740 76.78520 7.80048 76.21430 -4.47632 27.37370 99.47330 4.64501 10.54700 9.60536 32.96610 -2.29115 -20.66310 -34.39750 10.11210 76.16770 -5.11119 14.50060 0.88167 10.92610 -5.64199 -63.97010 -37.59560 10.95670 26.20580 37.65580 13.34970 -23.45410 -21.53460 17.96780 4.85113 3.51903 -46.49870 -1.73939 
49.84720 94.16900 -19.72330 14.46070 10.26670 124.44600 -3.11006 12.49620 1.20683 -5.54454 25.11480 3.39603 -14.02700 2.40183 19.14250 -0.00000 0.00000 -0.00000 -162.10899 -58.10340 -143.90800 -75.71980 57.93390 -38.86780 21.48840 6.78836 -12.70590 8.79147 0.79196 3.60638 76.72550 8.83495 76.79050 -4.43719 27.31370 99.67560 4.05114 10.46390 9.32511 33.06940 -0.02639 -23.05630 -33.00030 7.85577 74.97050 -5.92507 14.44810 1.03622 10.43330 -5.65638 -60.99190 -36.72690 6.91838 23.80460 38.30690 18.06180 -25.29850 -21.80390 19.44250 5.20688 3.40737 -43.08990 -1.15441 
49.32030 94.31290 -21.07460 14.82040 9.34630 122.23600 -1.91136 12.25250 0.73505 -5.06639 24.73380 2.84824 -14.44360 1.01641 20.89790 -0.00000 0.00000 -0.00000 -85.08600 -58.59560 -87.60150 -30.53250 20.37130 -65.24710 18.19780 7.87242 -8.95733 8.32305 0.77116 3.62014 76.75090 9.86216 77.66250 -4.69590 27.16940 99.49100 3.41057 10.37710 9.01238 32.89790 2.29850 -24.12460 -31.43650 6.05319 73.67080 -6.15879 14.23500 1.07108 9.70720 -7.22754 -59.46850 -35.87450 3.80392 21.19410 39.34860 22.12790 -27.47690 -21.95240 19.93130 5.34129 2.87294 -38.48050 -1.87068 
48.83340 94.37680 -22.19140 15.24180 8.72664 120.81600 -0.99107 12.07690 0.17003 -4.43211 24.46790 1.92951 -15.00760 0.06677 22.91300 -0.00000 0.00000 -0.00000 -35.98510 -34.41690 -62.41990 -2.83618 -40.29240 -48.29300 1.94751 9.75008 -9.50327 7.89638 0.78655 3.93682 76.97050 10.95500 78.64860 -5.42388 26.96370 99.01280 2.71048 10.28670 8.68515 32.56990 4.35152 -24.25190 -30.07080 4.81954 72.43380 -6.01043 13.80460 1.02294 8.79675 -9.99471 -58.99730 -35.20410 1.92806 18.75770 40.90910 25.04510 -29.48160 -21.58890 19.50550 5.16679 2.26395 -34.20340 -3.62748 
48.43040 94.37100 -23.02750 15.60770 8.47255 120.14600 -0.50396 11.95480 -0.41106 -3.80226 24.28760 0.77198 -15.72610 -0.46244 24.91440 -0.00000 0.00000 -0.00000 -11.46870 -14.35520 -59.62610 -40.78470 -79.17350 -69.28040 -14.01720 11.84290 -10.92260 7.45170 0.81468 4.40069 77.41700 12.16270 79.54530 -6.51271 26.72670 98.31830 1.94303 10.19320 8.36725 32.18800 5.77703 -24.00690 -29.22200 4.26075 71.24450 -5.80945 13.44290 0.96933 7.87740 -12.97470 -59.00420 -34.84070 1.34041 16.78730 42.93500 26.45600 -30.85690 -20.62170 18.57180 4.75441 1.82926 -31.83890 -5.73156 
48.15440 94.34860 -23.56170 15.73570 8.58225 119.96100 -0.54419 11.87310 -0.83540 -3.38028 24.14760 -0.27772 -16.53530 -0.63097 26.42740 -0.00000 0.00000 -0.00000 0.27339 -6.06904 -60.39020 -155.00400 -79.68680 -163.98000 -28.86570 11.94750 -3.58747 6.97108 0.82852 4.78305 78.06850 13.41400 80.18250 -7.68224 26.49850 97.52230 1.17190 10.10350 8.05060 31.80140 6.36693 -23.73080 -29.00810 4.40756 70.07250 -5.75772 13.65070 0.96896 7.10970 -15.46470 -59.20050 -34.76400 1.80242 15.37880 44.99260 26.32770 -31.39690 -19.30130 17.52990 4.26011 1.62353 -32.06370 -7.14048 
48.02380 94.37600 -23.81510 15.45990 8.96538 119.92500 -1.09749 11.81520 -0.91189 -3.34573 23.99960 -0.78893 -17.29610 -0.46766 27.03640 -0.00000 0.00000 -0.00000 5.15898 -1.93185 -60.99360 -179.70399 -74.00040 178.80099 -35.38410 9.68867 4.95467 6.45167 0.81305 4.92932 78.96460 14.51290 80.47470 -8.69101 26.32190 96.81520 0.49256 10.02740 7.71341 31.42300 6.08340 -23.45910 -29.37810 5.14902 69.03520 -5.87594 14.77730 1.04159 6.60126 -17.10860 -59.53010 -34.85280 2.89877 14.48750 46.51520 24.91440 -31.44920 -18.13100 16.49760 3.82575 1.71692 -34.32880 -6.81054 
48.01030 94.47380 -23.85310 14.73750 9.48174 119.83100 -2.04031 11.76650 -0.55442 -3.82188 23.82120 -0.47017 -17.72330 -0.01113 26.59430 -0.00000 0.00000 -0.00000 3.54431 -1.38299 -61.02800 -176.58501 -71.80190 -179.19701 -35.22040 9.92483 4.21911 5.95895 0.77741 4.86249 80.15950 15.24810 80.45610 -9.49427 26.21010 96.42140 -0.09069 9.96500 7.38374 31.09900 5.01542 -23.16520 -30.20920 6.19766 68.40700 -6.12435 16.66470 1.17927 6.49567 -17.48040 -59.85270 -35.00630 4.23963 14.02790 47.21880 22.59710 -31.81360 -17.64640 15.23760 3.51839 2.22114 -37.28590 -4.63036 
48.04430 94.58530 -23.76850 13.70460 10.01830 119.68800 -3.16052 11.73270 0.15629 -4.82899 23.64240 0.67494 -17.46520 0.59733 25.24240 -0.00000 0.00000 -0.00000 -2.26756 -3.19253 -60.67110 -157.79601 -71.75540 -167.98500 -30.80790 11.94240 -3.06099 5.60691 0.74473 4.73307 81.60000 15.51910 80.30550 -10.19130 26.14340 96.45520 -0.68444 9.90495 7.15693 30.90220 3.38229 -22.90330 -31.27500 7.15611 68.48310 -6.45503 18.62330 1.34773 6.93144 -16.15270 -59.88000 -35.19430 5.59100 13.90140 47.21090 19.84280 -33.07070 -18.04310 13.28140 3.27773 2.94024 -39.53790 -1.91414 
